{
	"asset":{
		"generator":"Khronos glTF Blender I/O v3.5.30",
		"version":"2.0"
	},
	"scene":0,
	"scenes":[
		{
			"name":"Scene",
			"nodes":[
				0,
				1,
				2,
				3,
				4,
				5,
				6,
				7,
				8,
				9,
				10,
				11,
				12,
				13,
				14,
				15
			]
		}
	],
	"nodes":[
		{
			"mesh":0,
			"name":"Base",
			"scale":[
				5.204125881195068,
				1.232273817062378,
				5.204125881195068
			],
			"translation":[
				0,
				-0.32563042640686035,
				0
			]
		},
		{
			"mesh":1,
			"name":"Cylinder.001",
			"rotation":[
				0,
				1,
				0,
				0
			],
			"scale":[
				-0.7323583364486694,
				-0.9659739136695862,
				-0.7323583364486694
			],
			"translation":[
				-7.560573577880859,
				2.782918930053711,
				3.617551326751709
			]
		},
		{
			"mesh":2,
			"name":"Cube",
			"scale":[
				1,
				0.9567812085151672,
				1
			],
			"translation":[
				-7.528903007507324,
				1.653956651687622,
				3.613516330718994
			]
		},
		{
			"mesh":3,
			"name":"BezierCurve",
			"translation":[
				-0.06859400868415833,
				-1.5908184051513672,
				-0.22227932512760162
			]
		},
		{
			"mesh":4,
			"name":"Cylinder.002",
			"rotation":[
				0,
				1,
				0,
				0
			],
			"scale":[
				-0.7323583364486694,
				-0.9659739136695862,
				-0.7323583364486694
			],
			"translation":[
				3.79428768157959,
				2.8171966075897217,
				-12.564640045166016
			]
		},
		{
			"mesh":5,
			"name":"Cube.002",
			"scale":[
				1,
				0.9567812085151672,
				1
			],
			"translation":[
				3.825958490371704,
				1.7067160606384277,
				-12.568675994873047
			]
		},
		{
			"mesh":6,
			"name":"Cylinder.003",
			"rotation":[
				0,
				1,
				0,
				0
			],
			"scale":[
				-0.7323583364486694,
				-0.9659739136695862,
				-0.7323583364486694
			],
			"translation":[
				-8.247688293457031,
				2.8171966075897217,
				-12.564640045166016
			]
		},
		{
			"mesh":7,
			"name":"Cube.003",
			"scale":[
				1,
				0.9567812085151672,
				1
			],
			"translation":[
				-8.216017723083496,
				1.7067160606384277,
				-12.568675994873047
			]
		},
		{
			"mesh":8,
			"name":"Cylinder.004",
			"rotation":[
				0,
				1,
				0,
				0
			],
			"scale":[
				-0.7323583364486694,
				-0.9659739136695862,
				-0.7323583364486694
			],
			"translation":[
				-2.560243606567383,
				2.8171966075897217,
				-12.564640045166016
			]
		},
		{
			"mesh":9,
			"name":"Cube.004",
			"scale":[
				1,
				0.9567812085151672,
				1
			],
			"translation":[
				-2.5285730361938477,
				1.7067160606384277,
				-12.568675994873047
			]
		},
		{
			"mesh":10,
			"name":"Cylinder.005",
			"rotation":[
				0,
				1,
				0,
				0
			],
			"scale":[
				-0.7323583364486694,
				-0.9659739136695862,
				-0.7323583364486694
			],
			"translation":[
				-2.560243606567383,
				2.8171966075897217,
				3.8047831058502197
			]
		},
		{
			"mesh":11,
			"name":"Cube.005",
			"scale":[
				1,
				0.9567812085151672,
				1
			],
			"translation":[
				-2.5285730361938477,
				1.7067160606384277,
				3.8007473945617676
			]
		},
		{
			"mesh":12,
			"name":"Cylinder.006",
			"rotation":[
				0,
				1,
				0,
				0
			],
			"scale":[
				-0.7323583364486694,
				-0.9659739136695862,
				-0.7323583364486694
			],
			"translation":[
				3.882777214050293,
				2.8171966075897217,
				3.8047831058502197
			]
		},
		{
			"mesh":13,
			"name":"Cube.006",
			"scale":[
				1,
				0.9567812085151672,
				1
			],
			"translation":[
				3.9144480228424072,
				1.7067160606384277,
				3.8007473945617676
			]
		},
		{
			"mesh":14,
			"name":"BezierCurve.001",
			"translation":[
				-2.7373080253601074,
				-0.14171066880226135,
				0
			]
		},
		{
			"mesh":15,
			"name":"BezierCurve.002",
			"translation":[
				0,
				-0.4262702465057373,
				0
			]
		}
	],
	"materials":[
		{
			"doubleSided":true,
			"name":"Material.003",
			"pbrMetallicRoughness":{
				"baseColorFactor":[
					0.8000000715255737,
					0.10970647633075714,
					0.20485462248325348,
					1
				],
				"metallicFactor":0,
				"roughnessFactor":0.5
			}
		},
		{
			"doubleSided":true,
			"name":"Material.007",
			"pbrMetallicRoughness":{
				"baseColorFactor":[
					0,
					0,
					0,
					1
				],
				"metallicFactor":0,
				"roughnessFactor":0.5
			}
		},
		{
			"doubleSided":true,
			"name":"Material.008",
			"pbrMetallicRoughness":{
				"baseColorFactor":[
					0.0030893285293132067,
					0.0030893285293132067,
					0.0030893285293132067,
					1
				],
				"metallicFactor":0,
				"roughnessFactor":0.5
			}
		},
		{
			"doubleSided":true,
			"name":"Material.004",
			"pbrMetallicRoughness":{
				"baseColorFactor":[
					0.8000000715255737,
					0,
					0.000985066406428814,
					1
				],
				"metallicFactor":0,
				"roughnessFactor":0.5
			}
		},
		{
			"doubleSided":true,
			"name":"Material.005",
			"pbrMetallicRoughness":{
				"baseColorFactor":[
					0.004450218286365271,
					0.004450218286365271,
					0.004450218286365271,
					1
				],
				"metallicFactor":0,
				"roughnessFactor":0.5
			}
		},
		{
			"doubleSided":true,
			"name":"Material.006",
			"pbrMetallicRoughness":{
				"baseColorFactor":[
					0,
					0,
					0,
					1
				],
				"metallicFactor":0,
				"roughnessFactor":0.5
			}
		},
		{
			"doubleSided":true,
			"name":"Material.009",
			"pbrMetallicRoughness":{
				"baseColorFactor":[
					0.004450218286365271,
					0.004450218286365271,
					0.004450218286365271,
					1
				],
				"metallicFactor":0,
				"roughnessFactor":0.5
			}
		},
		{
			"doubleSided":true,
			"name":"Material.010",
			"pbrMetallicRoughness":{
				"baseColorFactor":[
					0,
					0,
					0,
					1
				],
				"metallicFactor":0,
				"roughnessFactor":0.5
			}
		},
		{
			"doubleSided":true,
			"name":"Material.011",
			"pbrMetallicRoughness":{
				"baseColorFactor":[
					0.004450218286365271,
					0.004450218286365271,
					0.004450218286365271,
					1
				],
				"metallicFactor":0,
				"roughnessFactor":0.5
			}
		},
		{
			"doubleSided":true,
			"name":"Material.012",
			"pbrMetallicRoughness":{
				"baseColorFactor":[
					0,
					0,
					0,
					1
				],
				"metallicFactor":0,
				"roughnessFactor":0.5
			}
		},
		{
			"doubleSided":true,
			"name":"Material.013",
			"pbrMetallicRoughness":{
				"baseColorFactor":[
					0.004450218286365271,
					0.004450218286365271,
					0.004450218286365271,
					1
				],
				"metallicFactor":0,
				"roughnessFactor":0.5
			}
		},
		{
			"doubleSided":true,
			"name":"Material.014",
			"pbrMetallicRoughness":{
				"baseColorFactor":[
					0,
					0,
					0,
					1
				],
				"metallicFactor":0,
				"roughnessFactor":0.5
			}
		},
		{
			"doubleSided":true,
			"name":"Material.015",
			"pbrMetallicRoughness":{
				"baseColorFactor":[
					0.004450218286365271,
					0.004450218286365271,
					0.004450218286365271,
					1
				],
				"metallicFactor":0,
				"roughnessFactor":0.5
			}
		},
		{
			"doubleSided":true,
			"name":"Material.016",
			"pbrMetallicRoughness":{
				"baseColorFactor":[
					0,
					0,
					0,
					1
				],
				"metallicFactor":0,
				"roughnessFactor":0.5
			}
		},
		{
			"doubleSided":true,
			"name":"Material.017",
			"pbrMetallicRoughness":{
				"baseColorFactor":[
					0.03752012178301811,
					0.8000000715255737,
					0,
					1
				],
				"metallicFactor":0,
				"roughnessFactor":0.5
			}
		},
		{
			"doubleSided":true,
			"name":"Material.018",
			"pbrMetallicRoughness":{
				"baseColorFactor":[
					0,
					0.0021500091534107924,
					0.8000000715255737,
					1
				],
				"metallicFactor":0,
				"roughnessFactor":0.5
			}
		}
	],
	"meshes":[
		{
			"name":"Cube",
			"primitives":[
				{
					"attributes":{
						"POSITION":0,
						"TEXCOORD_0":1,
						"NORMAL":2
					},
					"indices":3,
					"material":0
				},
				{
					"attributes":{
						"POSITION":4,
						"TEXCOORD_0":5,
						"NORMAL":6
					},
					"indices":7,
					"material":0
				}
			]
		},
		{
			"name":"Cylinder.003",
			"primitives":[
				{
					"attributes":{
						"POSITION":8,
						"TEXCOORD_0":9,
						"NORMAL":10
					},
					"indices":11,
					"material":1
				}
			]
		},
		{
			"name":"Cube.004",
			"primitives":[
				{
					"attributes":{
						"POSITION":12,
						"TEXCOORD_0":13,
						"NORMAL":14
					},
					"indices":15,
					"material":2
				}
			]
		},
		{
			"name":"BezierCurve",
			"primitives":[
				{
					"attributes":{
						"POSITION":16,
						"TEXCOORD_0":17,
						"NORMAL":18
					},
					"indices":19,
					"material":3
				}
			]
		},
		{
			"name":"Cylinder.004",
			"primitives":[
				{
					"attributes":{
						"POSITION":20,
						"TEXCOORD_0":21,
						"NORMAL":22
					},
					"indices":11,
					"material":4
				}
			]
		},
		{
			"name":"Cube.005",
			"primitives":[
				{
					"attributes":{
						"POSITION":23,
						"TEXCOORD_0":24,
						"NORMAL":25
					},
					"indices":15,
					"material":5
				}
			]
		},
		{
			"name":"Cylinder.005",
			"primitives":[
				{
					"attributes":{
						"POSITION":26,
						"TEXCOORD_0":27,
						"NORMAL":28
					},
					"indices":11,
					"material":6
				}
			]
		},
		{
			"name":"Cube.006",
			"primitives":[
				{
					"attributes":{
						"POSITION":29,
						"TEXCOORD_0":30,
						"NORMAL":31
					},
					"indices":15,
					"material":7
				}
			]
		},
		{
			"name":"Cylinder.006",
			"primitives":[
				{
					"attributes":{
						"POSITION":32,
						"TEXCOORD_0":33,
						"NORMAL":34
					},
					"indices":11,
					"material":8
				}
			]
		},
		{
			"name":"Cube.007",
			"primitives":[
				{
					"attributes":{
						"POSITION":35,
						"TEXCOORD_0":36,
						"NORMAL":37
					},
					"indices":15,
					"material":9
				}
			]
		},
		{
			"name":"Cylinder.007",
			"primitives":[
				{
					"attributes":{
						"POSITION":38,
						"TEXCOORD_0":39,
						"NORMAL":40
					},
					"indices":11,
					"material":10
				}
			]
		},
		{
			"name":"Cube.008",
			"primitives":[
				{
					"attributes":{
						"POSITION":41,
						"TEXCOORD_0":42,
						"NORMAL":43
					},
					"indices":15,
					"material":11
				}
			]
		},
		{
			"name":"Cylinder.008",
			"primitives":[
				{
					"attributes":{
						"POSITION":44,
						"TEXCOORD_0":45,
						"NORMAL":46
					},
					"indices":11,
					"material":12
				}
			]
		},
		{
			"name":"Cube.009",
			"primitives":[
				{
					"attributes":{
						"POSITION":47,
						"TEXCOORD_0":48,
						"NORMAL":49
					},
					"indices":15,
					"material":13
				}
			]
		},
		{
			"name":"BezierCurve.001",
			"primitives":[
				{
					"attributes":{
						"POSITION":50,
						"TEXCOORD_0":51,
						"NORMAL":52
					},
					"indices":53,
					"material":14
				}
			]
		},
		{
			"name":"BezierCurve.002",
			"primitives":[
				{
					"attributes":{
						"POSITION":54,
						"TEXCOORD_0":55,
						"NORMAL":56
					},
					"indices":57,
					"material":15
				}
			]
		}
	],
	"accessors":[
		{
			"bufferView":0,
			"componentType":5126,
			"count":28,
			"max":[
				1,
				1,
				1
			],
			"min":[
				-1.8633430004119873,
				-0.9999998807907104,
				-2.680142402648926
			],
			"type":"VEC3"
		},
		{
			"bufferView":1,
			"componentType":5126,
			"count":28,
			"type":"VEC2"
		},
		{
			"bufferView":2,
			"componentType":5126,
			"count":28,
			"type":"VEC3"
		},
		{
			"bufferView":3,
			"componentType":5123,
			"count":54,
			"type":"SCALAR"
		},
		{
			"bufferView":4,
			"componentType":5126,
			"count":20,
			"max":[
				0.9484724402427673,
				1,
				0.9417045712471008
			],
			"min":[
				0.5641619563102722,
				-0.5293775200843811,
				0.5573940873146057
			],
			"type":"VEC3"
		},
		{
			"bufferView":5,
			"componentType":5126,
			"count":20,
			"type":"VEC2"
		},
		{
			"bufferView":6,
			"componentType":5126,
			"count":20,
			"type":"VEC3"
		},
		{
			"bufferView":7,
			"componentType":5123,
			"count":30,
			"type":"SCALAR"
		},
		{
			"bufferView":8,
			"componentType":5126,
			"count":3840,
			"max":[
				1,
				1,
				1
			],
			"min":[
				-1,
				-1,
				-1
			],
			"type":"VEC3"
		},
		{
			"bufferView":9,
			"componentType":5126,
			"count":3840,
			"type":"VEC2"
		},
		{
			"bufferView":10,
			"componentType":5126,
			"count":3840,
			"type":"VEC3"
		},
		{
			"bufferView":11,
			"componentType":5123,
			"count":17652,
			"type":"SCALAR"
		},
		{
			"bufferView":12,
			"componentType":5126,
			"count":24,
			"max":[
				1,
				1,
				1
			],
			"min":[
				-1,
				-1,
				-1
			],
			"type":"VEC3"
		},
		{
			"bufferView":13,
			"componentType":5126,
			"count":24,
			"type":"VEC2"
		},
		{
			"bufferView":14,
			"componentType":5126,
			"count":24,
			"type":"VEC3"
		},
		{
			"bufferView":15,
			"componentType":5123,
			"count":36,
			"type":"SCALAR"
		},
		{
			"bufferView":16,
			"componentType":5126,
			"count":22363,
			"max":[
				4.465209007263184,
				10.250542640686035,
				6.224205017089844
			],
			"min":[
				-8.092704772949219,
				3.589493751525879,
				-12.867576599121094
			],
			"type":"VEC3"
		},
		{
			"bufferView":17,
			"componentType":5126,
			"count":22363,
			"type":"VEC2"
		},
		{
			"bufferView":18,
			"componentType":5126,
			"count":22363,
			"type":"VEC3"
		},
		{
			"bufferView":19,
			"componentType":5123,
			"count":129936,
			"type":"SCALAR"
		},
		{
			"bufferView":20,
			"componentType":5126,
			"count":3840,
			"max":[
				1,
				1,
				1
			],
			"min":[
				-1,
				-1,
				-1
			],
			"type":"VEC3"
		},
		{
			"bufferView":21,
			"componentType":5126,
			"count":3840,
			"type":"VEC2"
		},
		{
			"bufferView":22,
			"componentType":5126,
			"count":3840,
			"type":"VEC3"
		},
		{
			"bufferView":23,
			"componentType":5126,
			"count":24,
			"max":[
				1,
				1,
				1
			],
			"min":[
				-1,
				-1,
				-1
			],
			"type":"VEC3"
		},
		{
			"bufferView":24,
			"componentType":5126,
			"count":24,
			"type":"VEC2"
		},
		{
			"bufferView":25,
			"componentType":5126,
			"count":24,
			"type":"VEC3"
		},
		{
			"bufferView":26,
			"componentType":5126,
			"count":3840,
			"max":[
				1,
				1,
				1
			],
			"min":[
				-1,
				-1,
				-1
			],
			"type":"VEC3"
		},
		{
			"bufferView":27,
			"componentType":5126,
			"count":3840,
			"type":"VEC2"
		},
		{
			"bufferView":28,
			"componentType":5126,
			"count":3840,
			"type":"VEC3"
		},
		{
			"bufferView":29,
			"componentType":5126,
			"count":24,
			"max":[
				1,
				1,
				1
			],
			"min":[
				-1,
				-1,
				-1
			],
			"type":"VEC3"
		},
		{
			"bufferView":30,
			"componentType":5126,
			"count":24,
			"type":"VEC2"
		},
		{
			"bufferView":31,
			"componentType":5126,
			"count":24,
			"type":"VEC3"
		},
		{
			"bufferView":32,
			"componentType":5126,
			"count":3840,
			"max":[
				1,
				1,
				1
			],
			"min":[
				-1,
				-1,
				-1
			],
			"type":"VEC3"
		},
		{
			"bufferView":33,
			"componentType":5126,
			"count":3840,
			"type":"VEC2"
		},
		{
			"bufferView":34,
			"componentType":5126,
			"count":3840,
			"type":"VEC3"
		},
		{
			"bufferView":35,
			"componentType":5126,
			"count":24,
			"max":[
				1,
				1,
				1
			],
			"min":[
				-1,
				-1,
				-1
			],
			"type":"VEC3"
		},
		{
			"bufferView":36,
			"componentType":5126,
			"count":24,
			"type":"VEC2"
		},
		{
			"bufferView":37,
			"componentType":5126,
			"count":24,
			"type":"VEC3"
		},
		{
			"bufferView":38,
			"componentType":5126,
			"count":3840,
			"max":[
				1,
				1,
				1
			],
			"min":[
				-1,
				-1,
				-1
			],
			"type":"VEC3"
		},
		{
			"bufferView":39,
			"componentType":5126,
			"count":3840,
			"type":"VEC2"
		},
		{
			"bufferView":40,
			"componentType":5126,
			"count":3840,
			"type":"VEC3"
		},
		{
			"bufferView":41,
			"componentType":5126,
			"count":24,
			"max":[
				1,
				1,
				1
			],
			"min":[
				-1,
				-1,
				-1
			],
			"type":"VEC3"
		},
		{
			"bufferView":42,
			"componentType":5126,
			"count":24,
			"type":"VEC2"
		},
		{
			"bufferView":43,
			"componentType":5126,
			"count":24,
			"type":"VEC3"
		},
		{
			"bufferView":44,
			"componentType":5126,
			"count":3840,
			"max":[
				1,
				1,
				1
			],
			"min":[
				-1,
				-1,
				-1
			],
			"type":"VEC3"
		},
		{
			"bufferView":45,
			"componentType":5126,
			"count":3840,
			"type":"VEC2"
		},
		{
			"bufferView":46,
			"componentType":5126,
			"count":3840,
			"type":"VEC3"
		},
		{
			"bufferView":47,
			"componentType":5126,
			"count":24,
			"max":[
				1,
				1,
				1
			],
			"min":[
				-1,
				-1,
				-1
			],
			"type":"VEC3"
		},
		{
			"bufferView":48,
			"componentType":5126,
			"count":24,
			"type":"VEC2"
		},
		{
			"bufferView":49,
			"componentType":5126,
			"count":24,
			"type":"VEC3"
		},
		{
			"bufferView":50,
			"componentType":5126,
			"count":2527,
			"max":[
				0.6872506141662598,
				12.02015495300293,
				5.754770278930664
			],
			"min":[
				-1.3055363893508911,
				3.6162021160125732,
				-13.387703895568848
			],
			"type":"VEC3"
		},
		{
			"bufferView":51,
			"componentType":5126,
			"count":2527,
			"type":"VEC2"
		},
		{
			"bufferView":52,
			"componentType":5126,
			"count":2527,
			"type":"VEC3"
		},
		{
			"bufferView":53,
			"componentType":5123,
			"count":14256,
			"type":"SCALAR"
		},
		{
			"bufferView":54,
			"componentType":5126,
			"count":4265,
			"max":[
				4.816842555999756,
				9.977861404418945,
				4.284794330596924
			],
			"min":[
				-9.629609107971191,
				3.278991460800171,
				-13.406911849975586
			],
			"type":"VEC3"
		},
		{
			"bufferView":55,
			"componentType":5126,
			"count":4265,
			"type":"VEC2"
		},
		{
			"bufferView":56,
			"componentType":5126,
			"count":4265,
			"type":"VEC3"
		},
		{
			"bufferView":57,
			"componentType":5123,
			"count":23892,
			"type":"SCALAR"
		}
	],
	"bufferViews":[
		{
			"buffer":0,
			"byteLength":336,
			"byteOffset":0,
			"target":34962
		},
		{
			"buffer":0,
			"byteLength":224,
			"byteOffset":336,
			"target":34962
		},
		{
			"buffer":0,
			"byteLength":336,
			"byteOffset":560,
			"target":34962
		},
		{
			"buffer":0,
			"byteLength":108,
			"byteOffset":896,
			"target":34963
		},
		{
			"buffer":0,
			"byteLength":240,
			"byteOffset":1004,
			"target":34962
		},
		{
			"buffer":0,
			"byteLength":160,
			"byteOffset":1244,
			"target":34962
		},
		{
			"buffer":0,
			"byteLength":240,
			"byteOffset":1404,
			"target":34962
		},
		{
			"buffer":0,
			"byteLength":60,
			"byteOffset":1644,
			"target":34963
		},
		{
			"buffer":0,
			"byteLength":46080,
			"byteOffset":1704,
			"target":34962
		},
		{
			"buffer":0,
			"byteLength":30720,
			"byteOffset":47784,
			"target":34962
		},
		{
			"buffer":0,
			"byteLength":46080,
			"byteOffset":78504,
			"target":34962
		},
		{
			"buffer":0,
			"byteLength":35304,
			"byteOffset":124584,
			"target":34963
		},
		{
			"buffer":0,
			"byteLength":288,
			"byteOffset":159888,
			"target":34962
		},
		{
			"buffer":0,
			"byteLength":192,
			"byteOffset":160176,
			"target":34962
		},
		{
			"buffer":0,
			"byteLength":288,
			"byteOffset":160368,
			"target":34962
		},
		{
			"buffer":0,
			"byteLength":72,
			"byteOffset":160656,
			"target":34963
		},
		{
			"buffer":0,
			"byteLength":268356,
			"byteOffset":160728,
			"target":34962
		},
		{
			"buffer":0,
			"byteLength":178904,
			"byteOffset":429084,
			"target":34962
		},
		{
			"buffer":0,
			"byteLength":268356,
			"byteOffset":607988,
			"target":34962
		},
		{
			"buffer":0,
			"byteLength":259872,
			"byteOffset":876344,
			"target":34963
		},
		{
			"buffer":0,
			"byteLength":46080,
			"byteOffset":1136216,
			"target":34962
		},
		{
			"buffer":0,
			"byteLength":30720,
			"byteOffset":1182296,
			"target":34962
		},
		{
			"buffer":0,
			"byteLength":46080,
			"byteOffset":1213016,
			"target":34962
		},
		{
			"buffer":0,
			"byteLength":288,
			"byteOffset":1259096,
			"target":34962
		},
		{
			"buffer":0,
			"byteLength":192,
			"byteOffset":1259384,
			"target":34962
		},
		{
			"buffer":0,
			"byteLength":288,
			"byteOffset":1259576,
			"target":34962
		},
		{
			"buffer":0,
			"byteLength":46080,
			"byteOffset":1259864,
			"target":34962
		},
		{
			"buffer":0,
			"byteLength":30720,
			"byteOffset":1305944,
			"target":34962
		},
		{
			"buffer":0,
			"byteLength":46080,
			"byteOffset":1336664,
			"target":34962
		},
		{
			"buffer":0,
			"byteLength":288,
			"byteOffset":1382744,
			"target":34962
		},
		{
			"buffer":0,
			"byteLength":192,
			"byteOffset":1383032,
			"target":34962
		},
		{
			"buffer":0,
			"byteLength":288,
			"byteOffset":1383224,
			"target":34962
		},
		{
			"buffer":0,
			"byteLength":46080,
			"byteOffset":1383512,
			"target":34962
		},
		{
			"buffer":0,
			"byteLength":30720,
			"byteOffset":1429592,
			"target":34962
		},
		{
			"buffer":0,
			"byteLength":46080,
			"byteOffset":1460312,
			"target":34962
		},
		{
			"buffer":0,
			"byteLength":288,
			"byteOffset":1506392,
			"target":34962
		},
		{
			"buffer":0,
			"byteLength":192,
			"byteOffset":1506680,
			"target":34962
		},
		{
			"buffer":0,
			"byteLength":288,
			"byteOffset":1506872,
			"target":34962
		},
		{
			"buffer":0,
			"byteLength":46080,
			"byteOffset":1507160,
			"target":34962
		},
		{
			"buffer":0,
			"byteLength":30720,
			"byteOffset":1553240,
			"target":34962
		},
		{
			"buffer":0,
			"byteLength":46080,
			"byteOffset":1583960,
			"target":34962
		},
		{
			"buffer":0,
			"byteLength":288,
			"byteOffset":1630040,
			"target":34962
		},
		{
			"buffer":0,
			"byteLength":192,
			"byteOffset":1630328,
			"target":34962
		},
		{
			"buffer":0,
			"byteLength":288,
			"byteOffset":1630520,
			"target":34962
		},
		{
			"buffer":0,
			"byteLength":46080,
			"byteOffset":1630808,
			"target":34962
		},
		{
			"buffer":0,
			"byteLength":30720,
			"byteOffset":1676888,
			"target":34962
		},
		{
			"buffer":0,
			"byteLength":46080,
			"byteOffset":1707608,
			"target":34962
		},
		{
			"buffer":0,
			"byteLength":288,
			"byteOffset":1753688,
			"target":34962
		},
		{
			"buffer":0,
			"byteLength":192,
			"byteOffset":1753976,
			"target":34962
		},
		{
			"buffer":0,
			"byteLength":288,
			"byteOffset":1754168,
			"target":34962
		},
		{
			"buffer":0,
			"byteLength":30324,
			"byteOffset":1754456,
			"target":34962
		},
		{
			"buffer":0,
			"byteLength":20216,
			"byteOffset":1784780,
			"target":34962
		},
		{
			"buffer":0,
			"byteLength":30324,
			"byteOffset":1804996,
			"target":34962
		},
		{
			"buffer":0,
			"byteLength":28512,
			"byteOffset":1835320,
			"target":34963
		},
		{
			"buffer":0,
			"byteLength":51180,
			"byteOffset":1863832,
			"target":34962
		},
		{
			"buffer":0,
			"byteLength":34120,
			"byteOffset":1915012,
			"target":34962
		},
		{
			"buffer":0,
			"byteLength":51180,
			"byteOffset":1949132,
			"target":34962
		},
		{
			"buffer":0,
			"byteLength":47784,
			"byteOffset":2000312,
			"target":34963
		}
	],
	"buffers":[
		{
			"byteLength":2048096,
			"uri":"data:application/octet-stream;base64,"
		}
	]
}
